#N canvas 150 80 900 650 12;
#X obj 50 50 netreceive -u -b 5005;
#X obj 50 100 oscparse;
#X obj 50 150 route cell;
#X obj 50 200 unpack s f f s f f f;
#X obj 50 250 unpack f f f;
#X obj 50 300 * 400;
#X obj 50 350 + 200;
#X obj 50 400 osc~;
#X obj 50 450 *~;
#X obj 50 500 *~ 0.3;
#X obj 50 550 dac~;
#X obj 300 150 route cell;
#X obj 300 200 route 0;
#X obj 300 250 route 0;
#X obj 300 300 route brightness;
#X obj 300 350 unpack s f f s f;
#X obj 300 400 print brightness;
#X obj 300 450 sig~;
#X obj 50 600 print rgb;
#X connect 0 0 1 0;
#X connect 1 0 2 0;
#X connect 2 0 3 0;
#X connect 3 4 4 0;
#X connect 4 0 5 0;
#X connect 5 0 6 0;
#X connect 6 0 7 0;
#X connect 7 0 8 0;
#X connect 8 0 9 0;
#X connect 9 0 10 0;
#X connect 9 0 10 1;
#X connect 0 0 11 0;
#X connect 11 0 12 0;
#X connect 12 0 13 0;
#X connect 13 0 14 0;
#X connect 14 0 15 0;
#X connect 15 4 17 0;
#X connect 17 0 8 1;
#X connect 3 0 18 0;
