#N canvas 0 50 900 700 10;
#X text 20 20 WEBCAM TO SOUND - Corrected for actual OSC format;
#X obj 50 60 udpreceive 5005;
#X obj 50 90 oscparse;
#X obj 50 120 route list;
#X obj 50 150 route cell;
#X obj 50 180 route 0;
#X obj 50 210 route 0;
#X obj 50 240 route rgb brightness contrast dominant;
#X text 300 240 Routes different data types;
#X obj 50 280 unpack f f f;
#X obj 150 280 f;
#X obj 250 280 f;
#X text 300 280 RGB Brightness Contrast;
#X obj 50 320 * 500;
#X obj 90 320 * 400;
#X obj 130 320 * 600;
#X obj 50 350 + 200;
#X obj 90 350 + 300;
#X obj 130 350 + 400;
#X obj 50 380 osc~;
#X obj 90 380 osc~;
#X obj 130 380 osc~;
#X obj 50 410 *~ 0.3;
#X obj 90 410 *~ 0.3;
#X obj 130 410 *~ 0.3;
#X obj 90 440 +~;
#X obj 130 470 +~;
#X obj 150 320 * 0.5;
#X obj 150 350 *~;
#X obj 150 470 hip~ 20;
#X obj 150 500 *~ 0.7;
#X obj 180 500 *~ 0.7;
#X obj 150 530 dac~;
#X obj 180 530 dac~;
#X text 300 320 Scale RGB to frequencies;
#X text 300 380 Sine oscillators;
#X text 300 410 Mix at 30percent each;
#X text 300 470 Remove DC and output;
#X text 20 580 RED: 200-700Hz GREEN: 300-700Hz BLUE: 400-1000Hz;
#X text 20 600 Brightness controls volume;
#X connect 1 0 2 0;
#X connect 2 0 3 0;
#X connect 3 0 4 0;
#X connect 4 0 5 0;
#X connect 5 0 6 0;
#X connect 6 0 7 0;
#X connect 7 0 9 0;
#X connect 7 1 10 0;
#X connect 7 2 11 0;
#X connect 9 0 13 0;
#X connect 9 1 14 0;
#X connect 9 2 15 0;
#X connect 10 0 27 0;
#X connect 13 0 16 0;
#X connect 14 0 17 0;
#X connect 15 0 18 0;
#X connect 16 0 19 0;
#X connect 17 0 20 0;
#X connect 18 0 21 0;
#X connect 19 0 22 0;
#X connect 20 0 23 0;
#X connect 21 0 24 0;
#X connect 22 0 25 0;
#X connect 23 0 25 1;
#X connect 24 0 26 1;
#X connect 25 0 26 0;
#X connect 26 0 28 0;
#X connect 27 0 28 1;
#X connect 28 0 29 0;
#X connect 29 0 30 0;
#X connect 29 0 31 0;
#X connect 30 0 32 0;
#X connect 31 0 33 0;