#N canvas 0 50 800 600 10;
#X text 20 20 WEBCAM TO SOUND;
#X obj 50 60 udpreceive 5005;
#X obj 50 90 oscparse;
#X obj 50 120 list trim;
#X obj 50 150 route /cell/0/0/rgb /cell/0/0/brightness;
#X obj 50 180 unpack f f f;
#X obj 200 180 f;
#X obj 50 210 * 500;
#X obj 90 210 * 400;
#X obj 130 210 * 600;
#X obj 50 240 + 200;
#X obj 90 240 + 300;
#X obj 130 240 + 400;
#X obj 50 270 osc~;
#X obj 90 270 osc~;
#X obj 130 270 osc~;
#X obj 50 300 *~ 0.3;
#X obj 90 300 *~ 0.3;
#X obj 130 300 *~ 0.3;
#X obj 90 330 +~;
#X obj 130 360 +~;
#X obj 200 210 * 0.5;
#X obj 200 240 *~;
#X obj 200 270 hip~ 20;
#X obj 200 300 *~ 0.7;
#X obj 220 300 *~ 0.7;
#X obj 200 330 dac~;
#X obj 220 330 dac~;
#X connect 1 0 2 0;
#X connect 2 0 3 0;
#X connect 3 0 4 0;
#X connect 4 0 5 0;
#X connect 4 1 6 0;
#X connect 5 0 7 0;
#X connect 5 1 8 0;
#X connect 5 2 9 0;
#X connect 6 0 21 0;
#X connect 7 0 10 0;
#X connect 8 0 11 0;
#X connect 9 0 12 0;
#X connect 10 0 13 0;
#X connect 11 0 14 0;
#X connect 12 0 15 0;
#X connect 13 0 16 0;
#X connect 14 0 17 0;
#X connect 15 0 18 0;
#X connect 16 0 19 0;
#X connect 17 0 19 1;
#X connect 18 0 20 1;
#X connect 19 0 20 0;
#X connect 20 0 22 0;
#X connect 21 0 22 1;
#X connect 22 0 23 0;
#X connect 23 0 24 0;
#X connect 23 0 25 0;
#X connect 24 0 26 0;
#X connect 25 0 27 0;