#N canvas 0 50 1000 800 10;
#X text 20 20 WEBCAM TO SOUND - Following teacher's format;
#X obj 50 60 udpreceive 5005;
#X obj 50 90 oscparse;
#X obj 50 120 route list;
#X obj 50 150 route cell;
#X obj 50 180 route 0 1 2 3;
#X text 200 180 Routes by row;
#X obj 50 210 route 0 1 2 3;
#X text 200 210 Routes by column;
#X obj 50 240 route rgb brightness contrast dominant;
#X text 300 240 Routes data types;
#X obj 50 280 unpack f f f;
#X obj 150 280 f;
#X obj 200 280 f;
#X obj 250 280 unpack f f f;
#X text 350 280 RGB Brightness Contrast Dominant;
#X text 20 320 === SOUND GENERATION ===;
#X obj 50 360 t f f;
#X obj 90 360 t f f;
#X obj 130 360 t f f;
#X text 200 360 Split RGB for freq and amplitude;
#X obj 50 390 * 500;
#X obj 90 390 * 400;
#X obj 130 390 * 600;
#X text 200 390 Scale to frequency ranges;
#X obj 50 420 + 200;
#X obj 90 420 + 300;
#X obj 130 420 + 400;
#X text 200 420 Add base frequencies;
#X obj 50 450 osc~;
#X obj 90 450 osc~;
#X obj 130 450 osc~;
#X text 200 450 Sine wave oscillators;
#X obj 170 390 / 3;
#X obj 210 390 / 3;
#X obj 250 390 / 3;
#X text 200 480 Amplitude control;
#X obj 170 420 *~;
#X obj 210 420 *~;
#X obj 250 420 *~;
#X obj 170 450 +~;
#X obj 210 450 +~;
#X text 200 510 Mix oscillators;
#X obj 150 320 * 0.5;
#X text 200 320 Brightness to volume;
#X obj 150 350 *~;
#X obj 210 480 hip~ 20;
#X text 300 480 Remove DC offset;
#X obj 210 510 *~ 0.7;
#X obj 240 510 *~ 0.7;
#X text 300 510 Master volume;
#X obj 210 540 dac~;
#X obj 240 540 dac~;
#X text 300 540 Audio output;
#X text 20 580 === CONTROLS ===;
#X obj 50 610 loadbang;
#X msg 50 640 \; pd dsp 1;
#X text 150 640 Turn on DSP automatically;
#X text 20 670 === COLOR TO SOUND MAPPING ===;
#X text 20 690 RED (R): 200-700 Hz - Low bass tones;
#X text 20 710 GREEN (G): 300-700 Hz - Mid range tones;
#X text 20 740 BLUE (B): 400-1000 Hz - High bright tones;
#X text 20 760 BRIGHTNESS: Controls overall volume (louder = brighter);
#X connect 1 0 2 0;
#X connect 2 0 3 0;
#X connect 3 0 4 0;
#X connect 4 0 5 0;
#X connect 5 0 7 0;
#X connect 7 0 9 0;
#X connect 9 0 11 0;
#X connect 9 1 12 0;
#X connect 9 2 13 0;
#X connect 9 3 14 0;
#X connect 11 0 17 0;
#X connect 11 1 18 0;
#X connect 11 2 19 0;
#X connect 12 0 43 0;
#X connect 17 0 21 0;
#X connect 17 1 33 0;
#X connect 18 0 22 0;
#X connect 18 1 34 0;
#X connect 19 0 23 0;
#X connect 19 1 35 0;
#X connect 21 0 25 0;
#X connect 22 0 26 0;
#X connect 23 0 27 0;
#X connect 25 0 29 0;
#X connect 26 0 30 0;
#X connect 27 0 31 0;
#X connect 29 0 37 0;
#X connect 30 0 38 0;
#X connect 31 0 39 0;
#X connect 33 0 37 1;
#X connect 34 0 38 1;
#X connect 35 0 39 1;
#X connect 37 0 40 0;
#X connect 38 0 40 1;
#X connect 39 0 41 1;
#X connect 40 0 41 0;
#X connect 41 0 45 0;
#X connect 43 0 45 1;
#X connect 45 0 46 0;
#X connect 46 0 48 0;
#X connect 46 0 49 0;
#X connect 48 0 51 0;
#X connect 49 0 52 0;
#X connect 55 0 56 0;