#N canvas 92 117 498 419 12;
#X obj 62 15 udpreceive 5005;
#X obj 71 73 oscparse;
#X obj 70 140 route /cell;
#X obj 64 196 route 0 1 2 3;
#X obj 66 241 route 0 1 2 3;
#X obj 68 291 route rgb brightness contrast dominant;
#X obj 68 332 unpack f f f;
#X obj 68 377 f;
#X connect 0 0 1 0;
#X connect 1 0 2 0;
#X connect 2 0 3 0;
#X connect 3 0 4 0;
#X connect 4 0 5 0;
#X connect 5 0 6 0;
#X connect 6 0 7 0;
